<?xml version="1.0" standalone="no"?>
<!DOCTYPE svg PUBLIC "-//W3C//DTD SVG 20010904//EN"
 "http://www.w3.org/TR/2001/REC-SVG-20010904/DTD/svg10.dtd">
<svg version="1.0" xmlns="http://www.w3.org/2000/svg"
 width="1000.000000pt" height="1000.000000pt" viewBox="0 0 1000.000000 1000.000000"
 preserveAspectRatio="xMidYMid meet">
<metadata>
Created by potrace 1.14, written by Peter Selinger 2001-2017
</metadata>
<g transform="translate(0.000000,1000.000000) scale(0.100000,-0.100000)"
fill="#000000" stroke="none">
<path d="M3790 8295 l0 -175 -175 0 -175 0 0 -175 0 -175 -175 0 -175 0 0
-3105 0 -3105 565 0 565 0 2 172 3 173 173 3 172 2 0 235 0 235 155 0 155 0 0
3045 0 3045 -545 0 -545 0 0 -175z"/>
<path d="M5000 4807 l0 -586 58 -6 c271 -30 479 -171 569 -385 24 -58 27 -78
27 -180 1 -108 -1 -120 -32 -190 -56 -130 -157 -232 -297 -300 -84 -40 -188
-70 -246 -70 -19 0 -44 -3 -56 -6 l-23 -6 0 -580 c0 -395 3 -586 11 -599 10
-19 17 -20 107 -14 418 27 797 148 1112 355 278 184 509 441 639 714 56 117
112 284 136 406 23 117 31 345 15 467 -107 852 -898 1501 -1902 1559 l-118 7
0 -586z"/>
</g>
</svg>
